<svg width="20" height="19" viewBox="0 0 20 19" fill="none" xmlns="http://www.w3.org/2000/svg">
<path d="M8.28947 16.2365C6.82947 18.3065 3.97947 18.8265 1.91947 17.3865C-0.130526 15.9465 -0.610526 13.0765 0.829474 10.9865C1.23218 10.4018 1.76515 9.91863 2.3864 9.57504C2.79301 9.35015 3.23016 9.18908 3.68257 9.09611C4.0783 9.01479 4.42098 9.33545 4.43509 9.73921C4.44872 10.1289 4.14814 10.4518 3.7755 10.5667C3.12185 10.7682 2.52449 11.185 2.09947 11.7965C1.09947 13.2365 1.40947 15.1765 2.77947 16.1465C4.15947 17.1065 6.08947 16.7365 7.08947 15.3065C7.39947 14.8565 7.57947 14.3665 7.64947 13.8665V13.8493C7.64947 13.2998 8.09283 12.8533 8.6423 12.8493L13.2295 12.8165L13.2995 12.7065C13.8295 11.7865 14.9795 11.4665 15.8795 11.9865C16.0949 12.1125 16.2833 12.2797 16.4341 12.4786C16.5848 12.6775 16.6949 12.9042 16.7581 13.1456C16.8212 13.387 16.8362 13.6386 16.8021 13.8858C16.768 14.133 16.6856 14.3711 16.5595 14.5865C16.0295 15.4965 14.8695 15.8165 13.9695 15.2965C13.5595 15.0665 13.2695 14.6965 13.1395 14.2765L9.06947 14.2965C8.95028 14.9912 8.68437 15.6526 8.28947 16.2365ZM15.5695 9.09646C18.0995 9.40646 19.8995 11.6765 19.5895 14.1665C19.2795 16.6665 16.9795 18.4365 14.4495 18.1265C13.7469 18.0446 13.0724 17.8029 12.4778 17.4198C12.0912 17.1707 11.7451 16.8661 11.4499 16.517C11.1874 16.2065 11.3075 15.7492 11.6591 15.5451C11.9952 15.3499 12.42 15.4609 12.6958 15.7347C12.8655 15.9031 13.0539 16.0526 13.2578 16.1801C13.6588 16.4307 14.11 16.5899 14.5795 16.6465C16.3295 16.8565 17.8795 15.6665 18.0895 13.9965C18.2995 12.3265 17.0595 10.7965 15.3295 10.5865C14.7895 10.5265 14.2695 10.5965 13.7995 10.7665C13.3276 11.0107 12.7469 10.832 12.4941 10.3646L10.3695 6.43646H10.1495C9.64603 6.4218 9.16886 6.20848 8.82221 5.84309C8.47557 5.47771 8.28763 4.98998 8.29947 4.48646C8.32947 3.44646 9.22947 2.63646 10.2795 2.67646C11.3295 2.73646 12.1595 3.58646 12.1295 4.62646C12.1095 5.06646 11.9395 5.46646 11.6695 5.77646L13.5695 9.28646C14.1895 9.08646 14.8695 9.01646 15.5695 9.09646ZM6.07947 6.37646C5.07947 4.02646 6.13947 1.33646 8.44947 0.356463C10.7695 -0.623537 13.4495 0.486463 14.4495 2.83646C14.9336 3.96056 14.9397 5.17218 14.5562 6.2338C14.418 6.6163 13.9612 6.73906 13.6095 6.53484C13.2736 6.33981 13.1595 5.91605 13.2592 5.54063C13.4348 4.8791 13.3982 4.15105 13.0995 3.45646C12.4195 1.85646 10.6095 1.08646 9.05947 1.73646C7.49947 2.39646 6.79947 4.23646 7.47947 5.83646C7.75947 6.49646 8.22947 7.00646 8.79947 7.34646C9.01113 7.46043 9.08334 7.72898 8.95737 7.93373L6.11947 12.5465C6.14947 12.5965 6.18947 12.6565 6.21947 12.7365C6.70947 13.6465 6.36947 14.7965 5.44947 15.2865C4.53947 15.7765 3.38947 15.4165 2.88947 14.4765C2.39947 13.5465 2.73947 12.3965 3.65947 11.9065C4.04947 11.6965 4.47947 11.6465 4.88947 11.7365L7.19947 7.96646C6.72947 7.53646 6.32947 6.99646 6.07947 6.37646Z" fill="white"/>
</svg>
