<svg width="20" height="21" viewBox="0 0 20 21" fill="none" xmlns="http://www.w3.org/2000/svg">
<path d="M10.2439 0.97561C10.2439 0.716862 10.3467 0.468712 10.5297 0.285749C10.7126 0.102787 10.9608 0 11.2195 0H19.0244C19.2832 0 19.5313 0.102787 19.7143 0.285749C19.8972 0.468712 20 0.716862 20 0.97561V8.78049C20 9.03924 19.8972 9.28739 19.7143 9.47035C19.5313 9.65331 19.2832 9.7561 19.0244 9.7561C18.7657 9.7561 18.5175 9.65331 18.3346 9.47035C18.1516 9.28739 18.0488 9.03924 18.0488 8.78049V3.33073L9.22637 12.1532C9.04237 12.3309 8.79593 12.4292 8.54013 12.427C8.28433 12.4248 8.03963 12.3222 7.85875 12.1413C7.67786 11.9604 7.57526 11.7157 7.57303 11.4599C7.57081 11.2041 7.66915 10.9577 7.84686 10.7737L16.6693 1.95122H11.2195C10.9608 1.95122 10.7126 1.84843 10.5297 1.66547C10.3467 1.48251 10.2439 1.23436 10.2439 0.97561Z" fill="white" fill-opacity="0.4"/>
<path d="M4.87805 3.65854C4.10181 3.65854 3.35735 3.9669 2.80847 4.51579C2.25958 5.06468 1.95122 5.80913 1.95122 6.58537V15.3659C1.95122 16.1421 2.25958 16.8866 2.80847 17.4354C3.35735 17.9843 4.10181 18.2927 4.87805 18.2927H13.4146C14.1909 18.2927 14.9353 17.9843 15.4842 17.4354C16.0331 16.8866 16.3415 16.1421 16.3415 15.3659V12.439C16.3415 12.1803 16.4443 11.9321 16.6272 11.7492C16.8102 11.5662 17.0583 11.4634 17.3171 11.4634C17.5758 11.4634 17.824 11.5662 18.0069 11.7492C18.1899 11.9321 18.2927 12.1803 18.2927 12.439V15.3659C18.2927 16.0065 18.1665 16.6408 17.9214 17.2326C17.6762 17.8244 17.3169 18.3622 16.8639 18.8152C16.411 19.2681 15.8732 19.6274 15.2814 19.8726C14.6896 20.1177 14.0552 20.2439 13.4146 20.2439H4.87805C3.58431 20.2439 2.34356 19.73 1.42875 18.8152C0.513936 17.9003 0 16.6596 0 15.3659V6.58537C0 5.29163 0.513936 4.05088 1.42875 3.13607C2.34356 2.22126 3.58431 1.70732 4.87805 1.70732H7.56098C7.81972 1.70732 8.06787 1.81011 8.25084 1.99307C8.4338 2.17603 8.53658 2.42418 8.53658 2.68293C8.53658 2.94168 8.4338 3.18983 8.25084 3.37279C8.06787 3.55575 7.81972 3.65854 7.56098 3.65854H4.87805Z" fill="white" fill-opacity="0.4"/>
</svg>
