<svg width="15" height="20" viewBox="0 0 15 20" fill="none" xmlns="http://www.w3.org/2000/svg">
<path d="M0 2.99972V16.9997C0 17.2649 0.105357 17.5193 0.292893 17.7068C0.48043 17.8944 0.734784 17.9997 1 17.9997H4V15.9997H2V3.99972H4V1.99972H1C0.734784 1.99972 0.48043 2.10508 0.292893 2.29262C0.105357 2.48015 0 2.73451 0 2.99972ZM14.242 2.02972L6.242 0.0297238C6.09462 -0.00703543 5.9408 -0.00973659 5.79222 0.0218255C5.64363 0.0533875 5.50419 0.118383 5.38448 0.211879C5.26477 0.305376 5.16792 0.424915 5.10131 0.561425C5.03469 0.697934 5.00004 0.847826 5 0.999724V18.9997C4.99965 19.1517 5.03404 19.3018 5.10054 19.4386C5.16704 19.5753 5.26389 19.695 5.38371 19.7886C5.50352 19.8821 5.64313 19.9471 5.79188 19.9785C5.94063 20.0099 6.09459 20.0069 6.242 19.9697L14.242 17.9697C14.4584 17.9157 14.6506 17.7909 14.788 17.6152C14.9253 17.4394 14.9999 17.2228 15 16.9997V2.99972C14.9999 2.77666 14.9253 2.56002 14.788 2.38426C14.6506 2.2085 14.4584 2.08371 14.242 2.02972V2.02972ZM10 10.1877C9.98848 10.4452 9.87809 10.6883 9.69182 10.8664C9.50554 11.0446 9.25774 11.144 9 11.144C8.74226 11.144 8.49446 11.0446 8.30818 10.8664C8.12191 10.6883 8.01152 10.4452 8 10.1877V9.81072C8.00013 9.54551 8.10562 9.29121 8.29325 9.10376C8.48088 8.91632 8.73528 8.81109 9.0005 8.81122C9.26572 8.81136 9.52002 8.91684 9.70746 9.10447C9.8949 9.2921 10.0001 9.54651 10 9.81172V10.1877V10.1877Z" fill="white"/>
</svg>
