<svg width="164" height="39" viewBox="0 0 164 39" fill="none" xmlns="http://www.w3.org/2000/svg">
<path d="M0.959709 12.8056C1.11265 12.8416 1.26442 12.8858 1.41529 12.9369C1.57792 12.9916 1.73848 12.8639 1.84772 12.7305C1.91139 12.6525 1.99105 12.5975 2.07765 12.5774C2.29183 12.5272 2.53323 12.6649 2.73853 12.7364C3.03178 12.8385 3.32509 12.941 3.61833 13.0435C4.45805 13.3366 5.2982 13.6295 6.13821 13.9225C10.6296 15.3993 15.1958 16.1543 19.7418 17.1011C20.9808 17.3591 22.1974 17.0847 23.3465 16.3526C25.5282 14.9633 27.7662 13.9841 30.1464 13.7607C31.6472 13.62 32.4822 11.9764 33.0896 10.1766C33.1245 10.0726 33.1297 9.94735 33.1149 9.80797C33.0935 9.60248 32.9939 9.31312 32.9203 9.15822C32.8759 9.06531 32.8292 8.97418 32.7797 8.88528C32.7661 8.86071 32.7573 8.83335 32.7528 8.8051C32.745 8.75629 32.704 8.67566 32.6394 8.6588C32.6026 8.64931 32.5631 8.64651 32.5211 8.65109C32.4518 8.6588 32.4125 8.59548 32.4025 8.51853C32.3856 8.38496 32.3899 8.22738 32.3035 8.13447C32.2513 8.07841 32.1994 8.02234 32.1473 7.96628C32.0945 7.90932 32.0806 7.81775 32.0954 7.74169C32.1219 7.60679 32.1548 7.53297 32.0697 7.43502C32.0181 7.37584 31.9668 7.31698 31.9152 7.25779C31.8793 7.2168 31.8597 7.1603 31.8564 7.10423C31.8506 7.00406 31.8443 6.93158 31.7716 6.91874C31.7276 6.91103 31.6836 6.90422 31.6392 6.89819C31.5004 6.87998 31.4638 6.58928 31.6057 6.52406C31.6057 6.52406 31.6624 6.49815 31.7327 6.46577C31.8027 6.43338 31.7315 6.402 31.5749 6.3705C31.4811 6.35185 31.3875 6.32583 31.2937 6.29356C31.1648 6.24844 31.1817 5.98332 31.2937 5.92591C31.3766 5.88359 31.4593 5.84159 31.5423 5.80016C31.6799 5.73137 31.7952 5.61154 31.8317 5.56642C31.8513 5.5423 31.8778 5.52811 31.9116 5.53046C31.9463 5.53314 31.981 5.5337 32.0154 5.5318C32.0727 5.52912 32.2481 5.45943 32.4074 5.38595C32.6844 5.25841 32.9626 5.13534 33.242 5.01785C33.2586 5.01104 33.2743 5.0087 33.2884 5.01104C33.3141 5.01462 33.467 4.98915 33.6333 5.00557C33.6436 5.00646 33.6539 5.00791 33.6641 5.00925C33.8301 5.03293 34.0911 5.12819 34.2556 5.16918C34.3874 5.2019 34.5199 5.24936 34.6535 5.31447C34.9559 5.46122 35.2411 5.68402 35.4972 5.966C35.6321 6.11409 35.8473 6.35923 35.9825 6.50642C36.5009 7.07051 36.9553 7.79865 37.3457 8.66717C37.9486 10.0077 38.6907 10.7012 39.7214 10.9559C40.5258 11.155 41.3333 11.4389 41.9435 12.4828C42.0536 12.6714 41.996 12.8201 41.8303 12.794C41.4567 12.7353 41.0832 12.6738 40.7087 12.6282C39.9534 12.5357 39.1975 12.4501 38.4411 12.3858C38.3038 12.374 38.1354 12.4218 38.0273 12.5385C37.2766 13.3519 36.5533 14.2244 35.7905 15.0104C35.2172 15.6014 34.9392 16.4024 34.837 17.3966C34.8107 17.6518 34.7407 17.8979 34.7229 18.1535C34.4797 21.6538 33.0902 23.6869 31.0241 24.9669C30.3352 25.3938 29.7133 26.0668 28.9807 26.7458C28.8386 26.8775 28.8145 27.1299 28.9264 27.3166C29.3271 27.985 29.6334 28.5424 29.9892 29.0139C30.9461 30.2829 31.9264 31.5127 32.915 32.7256C33.5163 33.4637 34.1847 33.7362 34.978 33.4182C35.2113 33.3247 35.4614 33.3284 35.7145 33.3489C35.8811 33.3625 36.1475 33.301 36.3135 33.3211C36.4369 33.3362 36.5577 33.3977 36.6663 33.5044C36.6992 33.5367 36.7004 33.6319 36.6542 33.6437C36.5861 33.6611 36.5179 33.6785 36.4496 33.6952C36.3364 33.7239 36.1883 33.8119 36.1186 33.8917C36.0488 33.9714 36.1152 34.1213 36.2667 34.226C36.3606 34.2908 36.4523 34.354 36.5428 34.4166C36.6943 34.5209 36.9541 34.5514 37.1174 34.6006C37.2836 34.6502 37.4297 34.7888 37.5298 34.9934C37.6291 35.1957 37.6666 35.4663 37.6376 35.5101C37.6198 35.5365 37.5929 35.5434 37.5718 35.5087C37.4113 35.2458 37.179 35.232 36.956 35.1765C36.7915 35.1355 36.5335 35.0253 36.3679 34.9983C35.7683 34.9008 35.167 34.8142 34.5848 34.6055C33.6664 34.2761 32.829 34.2984 31.9409 34.8848C31.5578 35.1377 31.1253 35.2198 30.6751 35.3013C30.5098 35.3314 30.253 35.4431 30.097 35.5318C29.8933 35.6476 29.6842 35.7401 29.4697 35.8084C29.4211 35.8239 29.384 35.7378 29.4205 35.6809C29.4555 35.6266 29.4902 35.5719 29.5247 35.5168C29.5817 35.4257 29.6288 35.3368 29.6351 35.3213C29.6387 35.3127 29.6435 35.305 29.6502 35.298C29.655 35.293 29.6602 35.288 29.665 35.2834C29.6734 35.2757 29.7308 35.1892 29.7962 35.093C29.8358 35.0347 29.8763 34.9782 29.9179 34.9239C29.9629 34.8652 30.0112 34.8227 30.0615 34.7982C30.149 34.7548 30.2974 34.6036 30.4107 34.4187C30.8612 33.6805 31.4846 33.5511 32.1684 33.6162C32.3347 33.6322 32.4827 33.5852 32.5003 33.4981C32.5174 33.4111 32.4224 33.2203 32.2878 33.0717C31.4592 32.1559 30.6328 31.236 29.7996 30.3296C28.9894 29.4483 28.1695 28.5872 27.3563 27.7123C27.2784 27.6284 27.229 27.4748 27.1469 27.4106C26.4429 26.8625 24.1602 27.6098 23.6569 28.5484C23.2556 29.297 22.8829 30.0834 22.4553 30.7952C22.0498 31.4699 21.5651 32.0368 21.1602 32.7126C20.7864 33.3358 20.4475 34.0162 20.1379 34.716C19.7816 35.5221 19.7834 35.512 19.0942 35.4573C18.9717 35.4478 18.8464 35.5129 18.7203 35.5972C18.5682 35.6998 18.3325 35.9089 18.1708 35.969C17.9892 36.0365 17.7994 36.0014 17.6086 35.7882C17.5869 35.7635 17.5832 35.7261 17.5902 35.6952C17.6026 35.6406 17.647 35.6397 17.653 35.636C17.6563 35.6341 17.66 35.6329 17.6638 35.6318C17.7616 35.6105 17.8594 35.5895 17.9574 35.5686C18.1195 35.5336 18.3478 35.3632 18.4674 35.1877C19.1527 34.1835 19.8392 33.1769 20.5377 32.1531C20.6572 31.9777 20.6741 31.6715 20.5742 31.47C20.3675 31.0536 20.1418 30.603 19.9309 30.1368C19.8117 29.8735 19.6979 29.605 19.5869 29.3385C19.4986 29.1253 19.3049 28.8597 19.1413 28.8113C18.9696 28.7607 18.7925 28.7657 18.6141 28.8286C18.5978 28.8345 18.584 28.8291 18.5736 28.8172C18.5549 28.7958 18.5305 28.7535 18.5224 28.7202C18.5179 28.7024 18.5191 28.6814 18.53 28.66C18.5547 28.6116 18.5818 28.568 18.6108 28.5288C18.66 28.4626 18.7116 28.4054 18.724 28.3943C18.7363 28.3834 18.8522 28.3009 18.9914 28.2859C19.1305 28.2708 19.3746 28.299 19.5412 28.3027C20.4889 28.3223 20.8025 29.5261 21.1166 30.6826C21.1799 30.9154 21.3604 31.0316 21.507 30.9123C22.0786 30.4466 22.5332 29.5763 23.7535 26.7754C23.8449 26.5653 23.8115 26.272 23.6805 26.1162C23.0001 25.3033 22.3492 24.4002 21.5918 23.806C20.841 23.2169 19.9816 22.942 19.1192 22.5574C18.9593 22.4864 18.9228 22.275 19.0362 22.0908C19.067 22.0408 19.0984 21.9898 19.1298 21.9392C19.2432 21.7551 19.2542 21.4421 19.1395 21.2593C18.1534 19.6827 16.7768 19.8354 15.4868 19.6658C14.1205 19.4859 12.8396 18.9232 11.5391 18.2835C10.9787 18.0079 10.4048 17.795 9.82573 17.6068C8.30169 17.209 6.7775 16.8112 5.25338 16.4134C5.08927 16.3706 4.82317 16.3008 4.65869 16.2581C3.76758 16.0257 2.87654 15.7928 1.9852 15.5604C1.73693 15.4958 1.30931 15.2893 1.33771 14.7803C1.34311 14.6846 1.36085 14.5963 1.38836 14.5198C1.43636 14.3871 1.51247 14.3115 1.51631 14.3015C1.52016 14.2914 1.45508 14.2527 1.37054 14.2094C1.31959 14.1835 1.26915 14.1562 1.21871 14.127C0.962521 13.998 0.710323 13.8523 0.461384 13.6951C0.319237 13.6053 0.0525436 13.4801 0.0111275 13.2057C-0.103951 12.4297 0.705368 12.7455 0.959709 12.8056Z" fill="white"/>
<path d="M57.8438 18H61.3977V13.679H62.625L64.9261 18H68.7869L66.1278 13.1165C67.5213 12.4453 68.3523 11.1733 68.3523 9.35795C68.3523 6.57102 66.4027 4.90909 63.4943 4.90909H57.8438V18ZM61.3977 10.9176V7.74716H62.6506C63.897 7.74716 64.6449 8.23295 64.6449 9.35795C64.6449 10.4766 63.897 10.9176 62.6506 10.9176H61.3977ZM74.4375 18.179C77.6335 18.179 79.5256 16.1335 79.5256 13.1165C79.5256 10.0994 77.6335 8.05398 74.4375 8.05398C71.2415 8.05398 69.3494 10.0994 69.3494 13.1165C69.3494 16.1335 71.2415 18.179 74.4375 18.179ZM74.4631 15.571C73.517 15.571 72.9545 14.6314 72.9545 13.0909C72.9545 11.5504 73.517 10.6108 74.4631 10.6108C75.358 10.6108 75.9205 11.5504 75.9205 13.0909C75.9205 14.6314 75.358 15.571 74.4631 15.571ZM83.6932 18.1534C84.9716 18.1534 85.9368 17.7188 86.5312 16.6193H86.608V18H89.9062V11.2756C89.9062 9.46023 88.1868 8.05398 85.3807 8.05398C82.4467 8.05398 81.0021 9.58807 80.8807 11.3778H84.1278C84.2109 10.7706 84.6584 10.483 85.3295 10.483C85.9432 10.483 86.3778 10.7642 86.3778 11.2756V11.3011C86.3778 11.87 85.7514 12.049 84.1023 12.1705C82.076 12.3175 80.4972 13.1357 80.4972 15.2898C80.4972 17.2457 81.8139 18.1534 83.6932 18.1534ZM84.8438 15.929C84.2429 15.929 83.821 15.6349 83.821 15.0852C83.821 14.5803 84.179 14.1903 84.9972 14.0625C85.5597 13.973 86.0327 13.858 86.4034 13.7045V14.5227C86.4034 15.4176 85.6428 15.929 84.8438 15.929ZM95.1461 18.1278C96.5268 18.1278 97.4728 17.3864 97.8819 16.3892H97.9586V18H101.461V4.90909H97.9331V9.89489H97.8819C97.4984 8.89773 96.5779 8.05398 95.1206 8.05398C93.1774 8.05398 91.2853 9.53693 91.2853 13.0909C91.2853 16.4915 93.0495 18.1278 95.1461 18.1278ZM96.4501 15.4176C95.4785 15.4176 94.916 14.5483 94.916 13.0909C94.916 11.6335 95.4785 10.7642 96.4501 10.7642C97.4217 10.7642 98.0098 11.6335 98.0098 13.0909C98.0098 14.5227 97.4217 15.4176 96.4501 15.4176ZM103.194 18H106.722V12.8864C106.722 11.7614 107.496 11.0199 108.537 11.0199C108.902 11.0199 109.49 11.0774 109.841 11.1989V8.18821C109.56 8.10511 109.253 8.05398 108.947 8.05398C107.898 8.05398 107.08 8.66761 106.722 10.0483H106.62V8.18182H103.194V18ZM117.365 13.7045C117.371 14.6761 116.809 15.2642 115.933 15.2642C115.045 15.2642 114.533 14.6761 114.527 13.7045V8.18182H110.998V14.446C111.005 16.5938 112.36 18.1278 114.425 18.1278C115.888 18.1278 117.013 17.3864 117.442 16.1335H117.544V18H120.893V8.18182H117.365V13.7045ZM126.216 12.4773C126.223 11.5057 126.772 10.9176 127.648 10.9176C128.537 10.9176 129.061 11.5057 129.054 12.4773V18H132.583V11.7358C132.589 9.60085 131.24 8.05398 129.157 8.05398C127.712 8.05398 126.568 8.80824 126.14 10.0483H126.037V8.18182H122.688V18H126.216V12.4773ZM137.853 12.4773C137.859 11.5057 138.409 10.9176 139.285 10.9176C140.173 10.9176 140.697 11.5057 140.691 12.4773V18H144.219V11.7358C144.226 9.60085 142.877 8.05398 140.793 8.05398C139.349 8.05398 138.205 8.80824 137.776 10.0483H137.674V8.18182H134.325V18H137.853V12.4773ZM150.666 18.179C153.389 18.179 155.14 16.875 155.473 14.8295H152.251C152.047 15.3857 151.465 15.6989 150.743 15.6989C149.694 15.6989 149.081 15.0085 149.081 14.0625V13.9091H155.473V13.0909C155.473 9.9652 153.555 8.05398 150.589 8.05398C147.547 8.05398 145.603 10.0739 145.603 13.1165C145.603 16.2933 147.521 18.179 150.666 18.179ZM149.081 11.9659C149.1 11.1158 149.803 10.5341 150.666 10.5341C151.542 10.5341 152.206 11.1222 152.225 11.9659H149.081ZM156.912 18H160.441V12.8864C160.441 11.7614 161.214 11.0199 162.256 11.0199C162.621 11.0199 163.209 11.0774 163.56 11.1989V8.18821C163.279 8.10511 162.972 8.05398 162.665 8.05398C161.617 8.05398 160.799 8.66761 160.441 10.0483H160.339V8.18182H156.912V18Z" fill="white"/>
<path d="M58.1449 34H59.2422V30.8288H62.3317V29.8878H59.2422V27.6719H62.6548V26.7273H58.1449V34ZM66.1162 34.1101C67.6539 34.1101 68.6589 32.9844 68.6589 31.2976C68.6589 29.6001 67.6539 28.4744 66.1162 28.4744C64.5786 28.4744 63.5736 29.6001 63.5736 31.2976C63.5736 32.9844 64.5786 34.1101 66.1162 34.1101ZM66.1198 33.2188C65.1148 33.2188 64.6461 32.3416 64.6461 31.294C64.6461 30.25 65.1148 29.3622 66.1198 29.3622C67.1177 29.3622 67.5864 30.25 67.5864 31.294C67.5864 32.3416 67.1177 33.2188 66.1198 33.2188ZM70.1441 34H71.2058V30.669C71.2058 29.9553 71.7563 29.4403 72.5091 29.4403C72.7293 29.4403 72.9779 29.4794 73.0631 29.5043V28.4886C72.9566 28.4744 72.747 28.4638 72.6121 28.4638C71.9729 28.4638 71.426 28.826 71.2271 29.4119H71.1703V28.5455H70.1441V34ZM79.6681 34C81.884 34 83.1659 32.6257 83.1659 30.353C83.1659 28.0909 81.884 26.7273 79.7426 26.7273H77.3137V34H79.6681ZM78.411 33.0412V27.6861H79.6752C81.2661 27.6861 82.0864 28.6378 82.0864 30.353C82.0864 32.0753 81.2661 33.0412 79.6077 33.0412H78.411ZM86.3326 34.1207C87.2346 34.1207 87.7424 33.6626 87.9448 33.2543H87.9874V34H89.0243V30.3778C89.0243 28.7905 87.7743 28.4744 86.9079 28.4744C85.9206 28.4744 85.0116 28.8722 84.6564 29.8665L85.6543 30.0938C85.8106 29.7067 86.2083 29.3338 86.9221 29.3338C87.6074 29.3338 87.959 29.6925 87.959 30.3104V30.3352C87.959 30.7223 87.5613 30.7152 86.5812 30.8288C85.5478 30.9496 84.4895 31.2195 84.4895 32.4588C84.4895 33.5312 85.2956 34.1207 86.3326 34.1207ZM86.5634 33.2685C85.9633 33.2685 85.53 32.9986 85.53 32.473C85.53 31.9048 86.0343 31.7024 86.6486 31.6207C86.9931 31.5746 87.8099 31.4822 87.9626 31.3295V32.0327C87.9626 32.679 87.4476 33.2685 86.5634 33.2685ZM93.2847 28.5455H92.1661V27.2386H91.1043V28.5455H90.3053V29.3977H91.1043V32.6186C91.1008 33.6094 91.8572 34.0888 92.6953 34.071C93.0326 34.0675 93.2599 34.0036 93.3842 33.9574L93.1924 33.0803C93.1214 33.0945 92.99 33.1264 92.8195 33.1264C92.4751 33.1264 92.1661 33.0128 92.1661 32.3984V29.3977H93.2847V28.5455ZM96.3466 34.1207C97.2486 34.1207 97.7564 33.6626 97.9589 33.2543H98.0015V34H99.0384V30.3778C99.0384 28.7905 97.7884 28.4744 96.9219 28.4744C95.9347 28.4744 95.0256 28.8722 94.6705 29.8665L95.6684 30.0938C95.8246 29.7067 96.2224 29.3338 96.9361 29.3338C97.6215 29.3338 97.9731 29.6925 97.9731 30.3104V30.3352C97.9731 30.7223 97.5753 30.7152 96.5952 30.8288C95.5618 30.9496 94.5036 31.2195 94.5036 32.4588C94.5036 33.5312 95.3097 34.1207 96.3466 34.1207ZM96.5775 33.2685C95.9773 33.2685 95.5441 32.9986 95.5441 32.473C95.5441 31.9048 96.0483 31.7024 96.6627 31.6207C97.0072 31.5746 97.8239 31.4822 97.9766 31.3295V32.0327C97.9766 32.679 97.4617 33.2685 96.5775 33.2685ZM103.784 34H104.882V31.4432H106.373C108.06 31.4432 108.894 30.424 108.894 29.0817C108.894 27.7429 108.067 26.7273 106.377 26.7273H103.784V34ZM104.882 30.5128V27.6683H106.259C107.346 27.6683 107.79 28.2578 107.79 29.0817C107.79 29.9055 107.346 30.5128 106.274 30.5128H104.882ZM110.396 34H111.457V30.669C111.457 29.9553 112.008 29.4403 112.761 29.4403C112.981 29.4403 113.229 29.4794 113.315 29.5043V28.4886C113.208 28.4744 112.999 28.4638 112.864 28.4638C112.224 28.4638 111.678 28.826 111.479 29.4119H111.422V28.5455H110.396V34ZM116.636 34.1101C118.173 34.1101 119.178 32.9844 119.178 31.2976C119.178 29.6001 118.173 28.4744 116.636 28.4744C115.098 28.4744 114.093 29.6001 114.093 31.2976C114.093 32.9844 115.098 34.1101 116.636 34.1101ZM116.639 33.2188C115.634 33.2188 115.166 32.3416 115.166 31.294C115.166 30.25 115.634 29.3622 116.639 29.3622C117.637 29.3622 118.106 30.25 118.106 31.294C118.106 32.3416 117.637 33.2188 116.639 33.2188ZM122.961 34.1101C124.25 34.1101 125.085 33.3359 125.202 32.2741H124.169C124.034 32.8636 123.576 33.2116 122.968 33.2116C122.07 33.2116 121.491 32.4624 121.491 31.2727C121.491 30.1044 122.08 29.3693 122.968 29.3693C123.643 29.3693 124.055 29.7955 124.169 30.3068H125.202C125.088 29.206 124.19 28.4744 122.951 28.4744C121.413 28.4744 120.419 29.6321 120.419 31.2976C120.419 32.9418 121.377 34.1101 122.961 34.1101ZM128.988 34.1101C130.178 34.1101 131.02 33.5241 131.261 32.6364L130.256 32.4553C130.064 32.9702 129.603 33.233 128.999 33.233C128.09 33.233 127.479 32.6435 127.451 31.5923H131.328V31.2159C131.328 29.245 130.149 28.4744 128.914 28.4744C127.394 28.4744 126.392 29.6321 126.392 31.3082C126.392 33.0021 127.38 34.1101 128.988 34.1101ZM127.454 30.7969C127.497 30.0227 128.058 29.3516 128.921 29.3516C129.745 29.3516 130.284 29.9624 130.288 30.7969H127.454ZM136.894 29.8771C136.674 29.0284 136.01 28.4744 134.831 28.4744C133.598 28.4744 132.725 29.1243 132.725 30.0902C132.725 30.8643 133.194 31.3793 134.216 31.6065L135.14 31.8089C135.665 31.9261 135.91 32.1605 135.91 32.5014C135.91 32.924 135.459 33.2543 134.763 33.2543C134.128 33.2543 133.719 32.9808 133.591 32.4446L132.565 32.6009C132.743 33.5668 133.545 34.1101 134.77 34.1101C136.088 34.1101 137 33.4105 137 32.4233C137 31.6527 136.51 31.1768 135.509 30.946L134.642 30.7472C134.042 30.6051 133.783 30.4027 133.787 30.0334C133.783 29.6143 134.238 29.3161 134.841 29.3161C135.502 29.3161 135.807 29.6818 135.932 30.0476L136.894 29.8771ZM142.555 29.8771C142.335 29.0284 141.671 28.4744 140.492 28.4744C139.26 28.4744 138.386 29.1243 138.386 30.0902C138.386 30.8643 138.855 31.3793 139.878 31.6065L140.801 31.8089C141.327 31.9261 141.572 32.1605 141.572 32.5014C141.572 32.924 141.121 33.2543 140.425 33.2543C139.789 33.2543 139.381 32.9808 139.253 32.4446L138.226 32.6009C138.404 33.5668 139.207 34.1101 140.432 34.1101C141.749 34.1101 142.662 33.4105 142.662 32.4233C142.662 31.6527 142.172 31.1768 141.17 30.946L140.304 30.7472C139.704 30.6051 139.444 30.4027 139.448 30.0334C139.444 29.6143 139.899 29.3161 140.503 29.3161C141.163 29.3161 141.469 29.6818 141.593 30.0476L142.555 29.8771ZM144.129 34H145.191V28.5455H144.129V34ZM144.665 27.7038C145.031 27.7038 145.337 27.4197 145.337 27.0717C145.337 26.7237 145.031 26.4361 144.665 26.4361C144.296 26.4361 143.994 26.7237 143.994 27.0717C143.994 27.4197 144.296 27.7038 144.665 27.7038ZM147.981 30.7614C147.981 29.8913 148.514 29.3942 149.253 29.3942C149.973 29.3942 150.41 29.8665 150.41 30.6584V34H151.472V30.5305C151.472 29.1811 150.73 28.4744 149.615 28.4744C148.794 28.4744 148.258 28.8544 148.006 29.4332H147.939V28.5455H146.919V34H147.981V30.7614ZM155.483 36.1591C156.871 36.1591 157.944 35.5234 157.944 34.1207V28.5455H156.903V29.4297H156.825C156.637 29.0923 156.261 28.4744 155.245 28.4744C153.928 28.4744 152.958 29.5149 152.958 31.2514C152.958 32.9915 153.949 33.9183 155.238 33.9183C156.239 33.9183 156.626 33.3537 156.818 33.0057H156.886V34.0781C156.886 34.9339 156.3 35.3033 155.494 35.3033C154.609 35.3033 154.265 34.8594 154.077 34.5469L153.164 34.9233C153.452 35.5909 154.18 36.1591 155.483 36.1591ZM155.472 33.0376C154.524 33.0376 154.031 32.3097 154.031 31.2372C154.031 30.1896 154.513 29.3764 155.472 29.3764C156.399 29.3764 156.896 30.1328 156.896 31.2372C156.896 32.3629 156.388 33.0376 155.472 33.0376Z" fill="white"/>
</svg>
