<svg width="15" height="16" viewBox="0 0 15 16" fill="none" xmlns="http://www.w3.org/2000/svg">
<path fill-rule="evenodd" clip-rule="evenodd" d="M6.42857 0C6.22965 9.91486e-05 6.03468 0.0518831 5.86551 0.149552C5.69633 0.247222 5.55963 0.386919 5.47071 0.553L4.695 2H1.07143C0.787268 2 0.514746 2.10536 0.313814 2.29289C0.112882 2.48043 0 2.73478 0 3C0 3.26522 0.112882 3.51957 0.313814 3.70711C0.514746 3.89464 0.787268 4 1.07143 4V14C1.07143 14.5304 1.29719 15.0391 1.69906 15.4142C2.10092 15.7893 2.64596 16 3.21429 16H11.7857C12.354 16 12.8991 15.7893 13.3009 15.4142C13.7028 15.0391 13.9286 14.5304 13.9286 14V4C14.2127 4 14.4853 3.89464 14.6862 3.70711C14.8871 3.51957 15 3.26522 15 3C15 2.73478 14.8871 2.48043 14.6862 2.29289C14.4853 2.10536 14.2127 2 13.9286 2H10.305L9.52929 0.553C9.44037 0.386919 9.30367 0.247222 9.13449 0.149552C8.96532 0.0518831 8.77035 9.91486e-05 8.57143 0H6.42857ZM4.28571 6C4.28571 5.73478 4.3986 5.48043 4.59953 5.29289C4.80046 5.10536 5.07298 5 5.35714 5C5.6413 5 5.91383 5.10536 6.11476 5.29289C6.31569 5.48043 6.42857 5.73478 6.42857 6V12C6.42857 12.2652 6.31569 12.5196 6.11476 12.7071C5.91383 12.8946 5.6413 13 5.35714 13C5.07298 13 4.80046 12.8946 4.59953 12.7071C4.3986 12.5196 4.28571 12.2652 4.28571 12V6ZM9.64286 5C9.3587 5 9.08617 5.10536 8.88524 5.29289C8.68431 5.48043 8.57143 5.73478 8.57143 6V12C8.57143 12.2652 8.68431 12.5196 8.88524 12.7071C9.08617 12.8946 9.3587 13 9.64286 13C9.92702 13 10.1995 12.8946 10.4005 12.7071C10.6014 12.5196 10.7143 12.2652 10.7143 12V6C10.7143 5.73478 10.6014 5.48043 10.4005 5.29289C10.1995 5.10536 9.92702 5 9.64286 5Z" fill="white"/>
</svg>
