<svg width="16" height="16" viewBox="0 0 16 16" fill="none" xmlns="http://www.w3.org/2000/svg">
<path d="M14 0H2C0.896 0 0 0.896 0 2V14C0 15.104 0.896 16 2 16H14C15.104 16 16 15.104 16 14V2C16 0.896 15.104 0 14 0ZM6.961 12.12C6.96113 12.2462 6.93636 12.3713 6.88812 12.4879C6.83987 12.6046 6.76909 12.7106 6.67982 12.7998C6.59056 12.8891 6.48457 12.9599 6.36791 13.0081C6.25126 13.0564 6.12624 13.0811 6 13.081H3.039C2.78464 13.0801 2.541 12.9785 2.36138 12.7984C2.18175 12.6183 2.08076 12.3744 2.0805 12.12V3.0395C2.0805 2.511 2.51 2.081 3.039 2.081H6C6.5315 2.081 6.961 2.5105 6.961 3.0395V12.12ZM13.9195 8.12C13.9194 8.3744 13.8184 8.61838 13.6388 8.7985C13.4591 8.97862 13.2154 9.08021 12.961 9.081H10C9.74521 9.08074 9.50093 8.9794 9.32076 8.79924C9.1406 8.61907 9.03926 8.37479 9.039 8.12V3.0395C9.039 2.511 9.4715 2.081 10 2.081H12.961C13.4895 2.081 13.9195 2.5105 13.9195 3.0395V8.12Z" fill="#0079BF"/>
</svg>
