<svg width="77" height="51" viewBox="0 0 77 51" fill="none" xmlns="http://www.w3.org/2000/svg">
<path d="M1.75947 12.8415C2.03986 12.9007 2.31809 12.9735 2.5947 13.0574C2.89286 13.1475 3.18722 12.9375 3.38748 12.7179C3.50422 12.5897 3.65026 12.4991 3.80903 12.466C4.20169 12.3835 4.64425 12.61 5.02065 12.7276C5.55826 12.8956 6.096 13.0642 6.63361 13.2329C8.17309 13.715 9.71337 14.1969 11.2534 14.679C19.4877 17.1085 27.8589 18.3507 36.1933 19.9083C38.4648 20.3327 40.6952 19.8813 42.8019 18.6768C46.8016 16.3912 50.9047 14.7803 55.2683 14.4128C58.02 14.1813 59.5506 11.4774 60.6642 8.51638C60.7283 8.34533 60.7377 8.13918 60.7107 7.90989C60.6714 7.57183 60.4889 7.09578 60.3538 6.84095C60.2725 6.68809 60.1868 6.53816 60.0961 6.39192C60.0711 6.3515 60.0551 6.30648 60.0469 6.26C60.0325 6.17971 59.9572 6.04706 59.8389 6.01931C59.7714 6.0037 59.6989 5.9991 59.6221 6.00664C59.4949 6.01931 59.4229 5.91514 59.4046 5.78855C59.3735 5.56881 59.3814 5.30957 59.2232 5.15671C59.1274 5.06447 59.0323 4.97224 58.9367 4.88001C58.8399 4.78631 58.8144 4.63565 58.8415 4.51053C58.8902 4.28858 58.9505 4.16714 58.7944 4.00601C58.6999 3.90863 58.6058 3.81181 58.5112 3.71443C58.4454 3.647 58.4095 3.55403 58.4034 3.4618C58.3928 3.297 58.3813 3.17776 58.248 3.15663C58.1672 3.14395 58.0865 3.13274 58.0052 3.12282C57.7507 3.09287 57.6837 2.61463 57.9438 2.50733C57.9438 2.50733 58.0477 2.4647 58.1767 2.41142C58.305 2.35814 58.1744 2.30651 57.8873 2.2547C57.7153 2.22402 57.5438 2.18121 57.3717 2.12811C57.1355 2.05388 57.1664 1.61771 57.3717 1.52328C57.5238 1.45364 57.6754 1.38456 57.8276 1.3164C58.0799 1.20322 58.2911 1.00608 58.3581 0.93185C58.394 0.892164 58.4427 0.868832 58.5047 0.872691C58.5683 0.8771 58.6319 0.878017 58.6949 0.874894C58.8 0.870484 59.1215 0.755837 59.4135 0.634944C59.9213 0.425125 60.4314 0.222654 60.9437 0.0293711C60.974 0.0181636 61.0029 0.0143072 61.0288 0.0181655C61.0759 0.0240449 61.3562 -0.0178475 61.6611 0.00916073C61.6799 0.0106306 61.6987 0.0130199 61.7176 0.0152247C62.0219 0.0541753 62.5003 0.210898 62.8019 0.278326C63.0436 0.332159 63.2865 0.410243 63.5315 0.517357C64.0858 0.758777 64.6086 1.12532 65.0783 1.58923C65.3256 1.83286 65.72 2.23615 65.9679 2.4783C66.9182 3.40632 67.7514 4.60423 68.4672 6.03309C69.5725 8.23839 70.9329 9.37935 72.8226 9.79844C74.2974 10.126 75.7777 10.5931 76.8963 12.3104C77.0982 12.6207 76.9926 12.8652 76.6889 12.8224C76.004 12.7258 75.3192 12.6246 74.6325 12.5496C73.2479 12.3975 71.8621 12.2566 70.4753 12.1509C70.2236 12.1314 69.9149 12.2101 69.7168 12.4021C68.3404 13.7402 67.0144 15.1756 65.6159 16.4687C64.5648 17.441 64.0553 18.7587 63.8678 20.3945C63.8196 20.8143 63.6912 21.219 63.6587 21.6396C63.2127 27.3982 60.6653 30.743 56.8775 32.8487C55.6146 33.5511 54.4744 34.6583 53.1313 35.7754C52.8707 35.992 52.8265 36.4072 53.0318 36.7144C53.7664 37.814 54.3279 38.731 54.9802 39.5067C56.7344 41.5944 58.5317 43.6177 60.3441 45.6131C61.4465 46.8274 62.6719 47.2757 64.1263 46.7525C64.554 46.5987 65.0125 46.6047 65.4767 46.6385C65.782 46.661 66.2704 46.5597 66.5748 46.5928C66.8009 46.6176 67.0224 46.7188 67.2215 46.8943C67.2819 46.9474 67.284 47.1041 67.1994 47.1236C67.0744 47.1521 66.9494 47.1807 66.8243 47.2083C66.6168 47.2555 66.3452 47.4003 66.2174 47.5315C66.0895 47.6626 66.2113 47.9092 66.489 48.0815C66.661 48.1881 66.8291 48.2921 66.9951 48.395C67.2728 48.5666 67.7491 48.6168 68.0485 48.6978C68.3533 48.7794 68.6211 49.0074 68.8047 49.344C68.9866 49.6769 69.0554 50.122 69.0022 50.1941C68.9695 50.2374 68.9203 50.2488 68.8817 50.1917C68.5873 49.7592 68.1614 49.7366 67.7526 49.6453C67.4511 49.5778 66.9782 49.3965 66.6744 49.352C65.5752 49.1916 64.4728 49.0493 63.4055 48.7059C61.7217 48.1639 60.1865 48.2006 58.5584 49.1654C57.8559 49.5813 57.0631 49.7164 56.2378 49.8505C55.9346 49.9001 55.4638 50.0838 55.1779 50.2297C54.8045 50.4202 54.421 50.5724 54.0278 50.6848C53.9387 50.7103 53.8707 50.5687 53.9376 50.475C54.0018 50.3857 54.0654 50.2957 54.1286 50.2051C54.2331 50.0552 54.3195 49.9089 54.331 49.8834C54.3376 49.8692 54.3465 49.8566 54.3587 49.8452C54.3675 49.8369 54.377 49.8286 54.3858 49.8211C54.4012 49.8084 54.5064 49.666 54.6264 49.5078C54.699 49.4119 54.7731 49.319 54.8495 49.2297C54.9319 49.133 55.0205 49.0632 55.1128 49.0228C55.2732 48.9515 55.5453 48.7027 55.7529 48.3985C56.5788 47.184 57.7218 46.9711 58.9753 47.0782C59.2802 47.1047 59.5517 47.0273 59.5838 46.884C59.6153 46.7409 59.4411 46.4269 59.1943 46.1825C57.6752 44.6758 56.1601 43.1624 54.6325 41.6712C53.1472 40.2214 51.6442 38.8047 50.1532 37.3654C50.0105 37.2274 49.9198 36.9748 49.7692 36.8691C48.4786 35.9674 44.2936 37.1967 43.371 38.7409C42.6353 39.9725 41.952 41.2663 41.168 42.4372C40.4246 43.5473 39.5361 44.4799 38.7937 45.5917C38.1083 46.617 37.4871 47.7363 36.9195 48.8876C36.2662 50.2137 36.2695 50.1972 35.0059 50.1072C34.7814 50.0916 34.5517 50.1987 34.3205 50.3374C34.0416 50.506 33.6097 50.8502 33.3131 50.949C32.9801 51.06 32.6322 51.0023 32.2824 50.6516C32.2427 50.611 32.2359 50.5494 32.2487 50.4985C32.2714 50.4087 32.3527 50.4072 32.3639 50.4011C32.37 50.398 32.3766 50.396 32.3837 50.3943C32.5629 50.3592 32.7422 50.3247 32.9219 50.2903C33.219 50.2327 33.6377 49.9523 33.857 49.6636C35.1133 48.0116 36.3719 46.3556 37.6525 44.6712C37.8715 44.3827 37.9025 43.8789 37.7193 43.5475C37.3404 42.8624 36.9266 42.121 36.54 41.3541C36.3214 40.9209 36.1129 40.4792 35.9094 40.0408C35.7473 39.6901 35.3922 39.253 35.0923 39.1734C34.7776 39.0902 34.4529 39.0985 34.1258 39.2019C34.096 39.2117 34.0707 39.2027 34.0517 39.1832C34.0174 39.1479 33.9726 39.0783 33.9577 39.0235C33.9494 38.9943 33.9516 38.9598 33.9717 38.9245C34.017 38.8449 34.0667 38.7731 34.1199 38.7086C34.21 38.5998 34.3047 38.5056 34.3273 38.4874C34.35 38.4694 34.5624 38.3338 34.8175 38.309C35.0725 38.2842 35.5201 38.3307 35.8254 38.3367C37.563 38.3689 38.1379 40.3493 38.7138 42.252C38.8298 42.6351 39.1607 42.8262 39.4295 42.6299C40.4774 41.8638 41.311 40.432 43.548 35.8241C43.7156 35.4785 43.6543 34.9958 43.4142 34.7395C42.1668 33.4021 40.9735 31.9165 39.5849 30.9389C38.2085 29.9697 36.633 29.5176 35.0519 28.8848C34.7588 28.7679 34.6918 28.4201 34.8998 28.1172C34.9562 28.0349 35.0138 27.9509 35.0713 27.8677C35.2793 27.5649 35.2994 27.0499 35.0891 26.7491C33.2813 24.1554 30.7575 24.4066 28.3925 24.1277C25.8876 23.8317 23.5392 22.9059 21.155 21.8535C20.1277 21.4 19.0755 21.0498 18.0138 20.7403C15.2198 20.0858 12.4254 19.4314 9.6312 18.7769C9.33033 18.7066 8.84248 18.5917 8.54093 18.5214C6.90723 18.139 5.27365 17.7559 3.63954 17.3736C3.18437 17.2672 2.4004 16.9275 2.45246 16.0902C2.46236 15.9328 2.4949 15.7875 2.54534 15.6616C2.63333 15.4433 2.77286 15.319 2.77991 15.3024C2.78696 15.2859 2.66764 15.2221 2.51266 15.151C2.41924 15.1084 2.32677 15.0634 2.2343 15.0154C1.76462 14.8032 1.30226 14.5635 0.845872 14.3048C0.585271 14.157 0.0963337 13.9511 0.020404 13.4997C-0.190572 12.2231 1.29318 12.7425 1.75947 12.8415Z" fill="white"/>
</svg>
