<svg width="55" height="38" viewBox="0 0 55 38" fill="none" xmlns="http://www.w3.org/2000/svg">
<path d="M1.25676 9.56821C1.45704 9.61229 1.65578 9.6665 1.85335 9.72907C2.06632 9.79614 2.27658 9.63967 2.41962 9.47608C2.50301 9.38053 2.60732 9.31304 2.72073 9.28839C3.00121 9.22693 3.31732 9.39572 3.58617 9.48334C3.97018 9.60846 4.35428 9.73413 4.73829 9.8598C5.83791 10.219 6.93812 10.5781 8.03813 10.9373C13.9198 12.7475 19.8992 13.673 25.8524 14.8337C27.4749 15.1499 29.068 14.8135 30.5728 13.916C33.4297 12.213 36.3605 11.0127 39.4774 10.7389C41.4428 10.5665 42.5362 8.55176 43.3316 6.34554C43.3774 6.21809 43.3841 6.06449 43.3648 5.89364C43.3367 5.64175 43.2063 5.28705 43.1099 5.09718C43.0518 4.98328 42.9906 4.87157 42.9258 4.7626C42.908 4.73249 42.8965 4.69895 42.8906 4.66431C42.8804 4.60449 42.8266 4.50565 42.7421 4.48498C42.6938 4.47334 42.6421 4.46992 42.5872 4.47553C42.4963 4.48498 42.4449 4.40736 42.4318 4.31304C42.4097 4.14931 42.4153 3.95615 42.3023 3.84225C42.2339 3.77353 42.1659 3.70481 42.0976 3.63608C42.0285 3.56627 42.0103 3.45401 42.0296 3.36079C42.0644 3.19541 42.1075 3.10493 41.996 2.98487C41.9285 2.91231 41.8613 2.84017 41.7937 2.76761C41.7467 2.71737 41.7211 2.6481 41.7167 2.57938C41.7092 2.45659 41.7009 2.36774 41.6057 2.352C41.548 2.34255 41.4904 2.3342 41.4323 2.32681C41.2505 2.30449 41.2026 1.94815 41.3884 1.8682C41.3884 1.8682 41.4627 1.83645 41.5548 1.79675C41.6464 1.75705 41.5531 1.71858 41.3481 1.67997C41.2252 1.65711 41.1027 1.62521 40.9798 1.58565C40.8111 1.53035 40.8332 1.20535 40.9798 1.13499C41.0885 1.08311 41.1967 1.03163 41.3054 0.980844C41.4856 0.896515 41.6365 0.749625 41.6844 0.694319C41.71 0.66475 41.7448 0.647365 41.7891 0.65024C41.8345 0.653525 41.8799 0.654209 41.9249 0.651882C42 0.648596 42.2296 0.563173 42.4382 0.473095C42.8009 0.31676 43.1653 0.165899 43.5312 0.0218843C43.5529 0.0135336 43.5735 0.0106603 43.592 0.0135351C43.6256 0.0179158 43.8259 -0.0132981 44.0436 0.00682564C44.0571 0.00792081 44.0705 0.00970111 44.084 0.0113439C44.3013 0.0403659 44.6431 0.157139 44.8585 0.20738C45.0312 0.247491 45.2046 0.305671 45.3796 0.385482C45.7756 0.565363 46.149 0.838471 46.4845 1.18413C46.6611 1.36566 46.9429 1.66615 47.1199 1.84658C47.7987 2.53804 48.3939 3.4306 48.9051 4.49524C49.6947 6.13841 50.6663 6.98854 52.0161 7.3008C53.0696 7.54488 54.1269 7.89287 54.926 9.17244C55.0702 9.40366 54.9947 9.58587 54.7778 9.55398C54.2886 9.48197 53.7994 9.40654 53.309 9.35068C52.3199 9.23733 51.33 9.13233 50.3395 9.05362C50.1597 9.03911 49.9392 9.0977 49.7977 9.24076C48.8146 10.2378 47.8674 11.3073 46.8685 12.2708C46.1177 12.9953 45.7538 13.9771 45.6198 15.1959C45.5854 15.5087 45.4937 15.8103 45.4705 16.1236C45.1519 20.4144 43.3323 22.9066 40.6268 24.4755C39.7247 24.9989 38.9103 25.8238 37.9509 26.6562C37.7648 26.8176 37.7332 27.1269 37.8798 27.3558C38.4046 28.1752 38.8056 28.8584 39.2716 29.4364C40.5246 30.9919 41.8083 32.4994 43.1029 33.9863C43.8904 34.891 44.7656 35.225 45.8045 34.8352C46.11 34.7206 46.4375 34.7251 46.769 34.7503C46.9871 34.767 47.336 34.6916 47.5534 34.7162C47.715 34.7347 47.8731 34.8101 48.0154 34.9408C48.0585 34.9804 48.06 35.0972 47.9996 35.1117C47.9103 35.1329 47.821 35.1543 47.7316 35.1748C47.5834 35.21 47.3895 35.3179 47.2981 35.4156C47.2068 35.5133 47.2938 35.6971 47.4921 35.8255C47.615 35.9049 47.7351 35.9824 47.8536 36.059C48.052 36.1869 48.3922 36.2242 48.6061 36.2846C48.8238 36.3454 49.0151 36.5153 49.1462 36.7661C49.2762 37.0141 49.3253 37.3458 49.2873 37.3995C49.264 37.4318 49.2288 37.4403 49.2012 37.3977C48.9909 37.0755 48.6867 37.0586 48.3947 36.9906C48.1794 36.9404 47.8415 36.8052 47.6246 36.7721C46.8394 36.6526 46.052 36.5465 45.2897 36.2906C44.0869 35.8868 42.9904 35.9142 41.8274 36.633C41.3256 36.943 40.7594 37.0436 40.1698 37.1435C39.9533 37.1805 39.617 37.3174 39.4128 37.4261C39.146 37.568 38.8722 37.6814 38.5913 37.7652C38.5277 37.7842 38.479 37.6786 38.5269 37.6088C38.5727 37.5423 38.6181 37.4752 38.6633 37.4077C38.7379 37.296 38.7996 37.187 38.8078 37.168C38.8126 37.1575 38.8189 37.148 38.8276 37.1395C38.8339 37.1334 38.8407 37.1272 38.847 37.1216C38.858 37.1122 38.9332 37.0061 39.0189 36.8882C39.0707 36.8167 39.1237 36.7475 39.1782 36.6809C39.2371 36.6089 39.3003 36.5569 39.3663 36.5268C39.4809 36.4737 39.6752 36.2883 39.8235 36.0616C40.4134 35.1567 41.2299 34.9981 42.1252 35.0779C42.343 35.0976 42.5369 35.04 42.5599 34.9332C42.5823 34.8265 42.4579 34.5926 42.2816 34.4105C41.1965 33.2878 40.1143 32.1602 39.0232 31.0492C37.9623 29.9689 36.8887 28.9133 35.8237 27.8409C35.7218 27.738 35.657 27.5498 35.5495 27.4711C34.6276 26.7992 31.6383 27.7152 30.9793 28.8658C30.4537 29.7834 29.9657 30.7474 29.4057 31.6199C28.8747 32.447 28.2401 33.1419 27.7098 33.9702C27.2202 34.7343 26.7765 35.5682 26.3711 36.426C25.9045 37.4142 25.9068 37.4018 25.0042 37.3348C24.8439 37.3231 24.6798 37.4029 24.5147 37.5063C24.3155 37.632 24.0069 37.8884 23.7951 37.962C23.5572 38.0447 23.3087 38.0017 23.0588 37.7404C23.0305 37.7101 23.0256 37.6643 23.0348 37.6263C23.051 37.5594 23.1091 37.5583 23.117 37.5538C23.1214 37.5515 23.1261 37.55 23.1312 37.5487C23.2592 37.5226 23.3873 37.4968 23.5157 37.4712C23.7279 37.4282 24.0269 37.2193 24.1835 37.0043C25.0809 35.7733 25.9799 34.5395 26.8946 33.2844C27.0511 33.0695 27.0732 32.6941 26.9424 32.4471C26.6717 31.9367 26.3761 31.3843 26.1 30.8129C25.9439 30.4901 25.7949 30.161 25.6495 29.8343C25.5338 29.573 25.2802 29.2473 25.0659 29.1881C24.8412 29.126 24.6092 29.1322 24.3756 29.2093C24.3543 29.2165 24.3362 29.2098 24.3226 29.1953C24.2981 29.169 24.2662 29.1171 24.2555 29.0763C24.2496 29.0546 24.2511 29.0288 24.2655 29.0026C24.2978 28.9433 24.3334 28.8898 24.3713 28.8417C24.4357 28.7607 24.5033 28.6904 24.5195 28.6769C24.5357 28.6635 24.6875 28.5624 24.8696 28.544C25.0518 28.5255 25.3715 28.5601 25.5896 28.5646C26.8307 28.5886 27.2414 30.0642 27.6527 31.4819C27.7356 31.7673 27.9719 31.9097 28.1639 31.7635C28.9124 31.1926 29.5078 30.1258 31.1057 26.6924C31.2254 26.4349 31.1817 26.0753 31.0101 25.8843C30.1191 24.8879 29.2668 23.7809 28.2749 23.0525C27.2918 22.3304 26.1664 21.9935 25.0371 21.522C24.8277 21.4349 24.7798 21.1758 24.9284 20.95C24.9687 20.8887 25.0099 20.8262 25.0509 20.7641C25.1995 20.5385 25.2138 20.1548 25.0636 19.9307C23.7723 17.9981 21.9697 18.1853 20.2803 17.9775C18.4911 17.7569 16.8137 17.0671 15.1107 16.283C14.3769 15.9451 13.6254 15.6842 12.867 15.4535C10.8713 14.9659 8.87529 14.4783 6.87943 13.9906C6.66452 13.9382 6.31606 13.8527 6.10066 13.8002C4.93373 13.5153 3.76689 13.2299 2.59967 12.945C2.27454 12.8658 1.71457 12.6126 1.75175 11.9888C1.75882 11.8715 1.78207 11.7632 1.81809 11.6694C1.88095 11.5068 1.98061 11.4141 1.98565 11.4018C1.99068 11.3895 1.90546 11.342 1.79476 11.289C1.72803 11.2572 1.66198 11.2237 1.59592 11.188C1.26044 11.0299 0.930183 10.8512 0.604191 10.6585C0.418045 10.5484 0.0688057 10.3949 0.0145683 10.0586C-0.136127 9.10742 0.923695 9.49442 1.25676 9.56821Z" fill="white"/>
</svg>
